# AST/ASF file generated using VICON BodyLanguage
# -----------------------------------------------
:version 1.10
:name VICON
:units
  mass 1.0
  length 0.45
  angle deg
:documentation
   .ast/.asf automatically generated from VICON data using
   VICON BodyBuilder and BodyLanguage model FoxedUp or BRILLIANT.MOD
:root
   order TX TY TZ RX RY RZ
   axis XYZ
   position 0 0 0  
   orientation 0 0 0 
:bonedata
  begin
     id 1 
     name lhipjoint
     direction 0.623415 -0.642378 0.445763 
     length 2.49859 
     axis 0 0 0  XYZ
  end
  begin
     id 2 
     name lfemur
     direction 0.34202 -0.939693 0  
     length 6.69689  
     axis 0 0 20  XYZ
    dof rx ry rz
    limits (-160.0 20.0)
           (-70.0 70.0)
           (-60.0 70.0)
  end
  begin
     id 3 
     name ltibia
     direction 0.34202 -0.939693 0   
     length 7.37574   
     axis 0 0 20   XYZ
    dof rx
    limits (-10.0 170.0)
  end
  begin
     id 4 
     name lfoot
     direction 0.084323 -0.231675 0.969132   
     length 2.09111   
     axis -90 7.62852e-016 20   XYZ
    dof rx rz
    limits (-45.0 90.0)
           (-70.0 20.0)
  end
  begin
     id 5 
     name ltoes
     direction 1.5357e-011 -4.21957e-011 1   
     length 1.04989   
     axis -90 7.62852e-016 20   XYZ
    dof rx
    limits (-90.0 20.0)
  end
  begin
     id 6 
     name rhipjoint
     direction -0.605402 -0.653903 0.45376   
     length 2.45455  
     axis 0 0 0  XYZ 
  end
  begin
     id 7 
     name rfemur
     direction -0.34202 -0.939693 0   
     length 6.64523   
     axis 0 0 -20   XYZ
    dof rx ry rz
    limits (-160.0 20.0)
           (-70.0 70.0)
           (-70.0 60.0)
  end
  begin
     id 8 
     name rtibia
     direction -0.34202 -0.939693 0   
     length 7.3339   
     axis 0 0 -20   XYZ
    dof rx
    limits (-10.0 170.0)
 end
 begin
     id 9 
     name rfoot
     direction -0.120854 -0.332043 0.93549   
     length 2.23135  
     axis -90 -7.62852e-016 -20   XYZ
    dof rx rz
    limits (-45.0 90.0)
           (-20.0 70.0)
  end
  begin
     id 10 
     name rtoes
     direction -1.53563e-011 -4.21914e-011 1   
     length 1.10614   
     axis -90 -7.62852e-016 -20   XYZ
    dof rx
    limits (-90.0 20.0)
  end
  begin
     id 11 
     name lowerback
     direction 0.0319682 0.998615 -0.0417941   
     length 2.02718   
     axis 0 0 0   XYZ
    dof rx ry rz
    limits (-20.0 45.0)
           (-30.0 30.0)
           (-30.0 30.0)
  end
  begin
     id 12 
     name upperback
     direction 7.63181e-005 0.995808 0.0914691   
     length 1.97539   
     axis 0 0 0   XYZ
    dof rx ry rz
    limits (-20.0 45.0)
           (-30.0 30.0)
           (-30.0 30.0)
  end
  begin
     id 13 
     name thorax
     direction -0.016423 0.993627 0.111514   
     length 2.00349   
     axis 0 0 0   XYZ
    dof rx ry rz
    limits (-20.0 45.0)
           (-30.0 30.0)
           (-30.0 30.0)
  end
  begin
     id 14 
     name lowerneck
     direction -0.174763 0.981668 -0.0760716   
     length 1.71436   
     axis 0 0 0   XYZ
    dof rx ry rz
    limits (-20.0 45.0)
           (-30.0 30.0)
           (-30.0 30.0)
  end
  begin
     id 15 
     name upperneck
     direction 0.345458 0.934587 -0.0848868   
     length 1.72805   
     axis 0 0 0   XYZ
    dof rx ry rz
    limits (-20.0 45.0)
           (-30.0 30.0)
           (-30.0 30.0)
  end
  begin
     id 16
     name head
     direction 0.13001 0.989848 -0.0574291  
     length 1.767  
     axis 0 0 0   XYZ
    dof rx ry rz
    limits (-20.0 45.0)
           (-30.0 30.0)
           (-30.0 30.0)
  end
  begin
     id 17 
     name lclavicle
     direction 0.952951 0.290122 0.0878234  
     length 3.54654  
     axis 0 0 0   XYZ
    dof ry rz
    limits (-20.0 10.0)
           (0.0 20.0)
  end
  begin
     id 18 
     name lhumerus
     direction 1 -4.48957e-011 -4.56525e-028   
     length 5.19807   
     axis 180 -30 -90   XYZ
    dof rx ry rz
    limits (-60.0 90.0)
           (-90.0 90.0)
           (-90.0 90.0)
  end
  begin
     id 19
     name lradius
     direction 1 -4.48979e-011 -2.0317e-027   
     length 3.0937   
     axis 180 -30 -90   XYZ
    dof rx
    limits (-10.0 170.0)
  end
  begin
     id 20
     name lwrist
     direction 1 -4.48953e-011 -3.05809e-027   
     length 1.54685   
     axis 8.48514e-016 90 90   XYZ
    dof ry
    limits (-180.0 0.0)
 end
  begin
     id 21 
     name lhand
     direction 1 -4.48952e-011 -6.11639e-027   
     length 0.672632   
     axis 3.9013e-015 90 90   XYZ
    dof rx rz
    limits (-90.0 90.0)
           (-45.0 45.0)
  end
  begin
     id 22 
     name lfingers
     direction 1 -4.48925e-011 -1.22426e-026   
     length 0.542293   
     axis 7.80276e-015 90 90   XYZ
    dof rx
    limits (0.0 90.0)
  end
  begin
     id 23
     name lthumb
     direction 0.707107 -6.3486e-011 0.707107   
     length 0.778628   
     axis -90 45 5.37419e-014   XYZ
    dof rx rz
    limits (-45.0 45.0)
           (-45.0 45.0)
  end
  begin
     id 24 
     name rclavicle
     direction -0.960732 0.273675 -0.0457849   
     length 3.52079  
     axis 0 0 0   XYZ 
    dof ry rz
    limits (-10.0 20.0)
           (-20.0 0.0)
  end
  begin
     id 25 
     name rhumerus
     direction -1 -4.48976e-011 -1.63613e-027  
     length 5.45222   
     axis 180 30 90   XYZ
    dof rx ry rz
    limits (-90.0 60.0)
           (-90.0 90.0)
           (-90.0 90.0)
  end
  begin
     id 26 
     name rradius
     direction -1 -4.48957e-011 -7.00033e-028   
     length 3.01284   
     axis 180 30 90   XYZ
    dof rx
    limits (-10.0 170.0)
  end
  begin
     id 27 
     name rwrist
     direction -1 -4.48983e-011 -3.05543e-027   
     length 1.50642   
     axis 8.48514e-016 -90 -90   XYZ
    dof ry
    limits (-180.0 0.0)
  end
  begin
     id 28
     name rhand
     direction -1 -4.48984e-011 -6.11072e-027   
     length 0.622296   
     axis 3.9013e-015 -90 -90   XYZ
    dof rx rz
    limits (-90.0 90.0)
           (-45.0 45.0)
  end
  begin
     id 29
     name rfingers
     direction -1 -4.48865e-011 -1.22637e-026   
     length 0.501711   
     axis 7.80276e-015 -90 -90   XYZ
    dof rx
    limits (0.0 90.0)
  end
  begin
     id 30
     name rthumb
     direction -0.707107 -6.34932e-011 0.707107   
     length 0.72036   
     axis -90 -45 -5.37419e-014   XYZ
    dof rx rz
    limits (-45.0 45.0)
           (-45.0 45.0)
  end
:hierarchy
  begin
    root lhipjoint rhipjoint lowerback
    lhipjoint lfemur
    lfemur ltibia
    ltibia lfoot
    lfoot ltoes
    rhipjoint rfemur
    rfemur rtibia
    rtibia rfoot
    rfoot rtoes
    lowerback upperback
    upperback thorax
    thorax lowerneck lclavicle rclavicle
    lowerneck upperneck
    upperneck head
    lclavicle lhumerus
    lhumerus lradius
    lradius lwrist
    lwrist lhand lthumb
    lhand lfingers
    rclavicle rhumerus
    rhumerus rradius
    rradius rwrist
    rwrist rhand rthumb
    rhand rfingers
  end

#!OML:ASF H:\Not Pregnant\Project 1\Capture day 1\Session 1\non-pregnant.ASF
:FULLY-SPECIFIED
:DEGREES
304
root 11.5825 15.4139 17.2889 20.5001 -60.3794 -9.94454
lowerback -0.629563 0.799061 3.15804
upperback -6.40689 1.05635 -0.228893
thorax -6.23937 0.30459 -2.05096
lowerneck 10.9874 -8.39938 -29.1649
upperneck -7.45932 -15.2303 42.5886
head 2.61474 -9.47528 21.2862
rclavicle -3.3048e-015 -3.97569e-015
rhumerus -39.2376 -26.2345 -53.3897
rradius 27.3904
rwrist 15.2535
rhand -15.4476 -13.3856
rfingers 7.12502
rthumb 10.733 -43.0914
lclavicle -3.3048e-015 -3.97569e-015
lhumerus -38.0438 24.9532 68.2256
lradius 120.349
lwrist 47.7251
lhand -20.6717 -16.6043
lfingers 7.12502
lthumb 5.69131 13.2993
rfemur -20.7419 -3.28156 15.5115
rtibia 55.7121
rfoot -22.7349 -7.66262
rtoes -17.6742
lfemur -34.5669 11.6758 -24.5158
ltibia 45.1866
lfoot -22.2743 -17.3353
ltoes -1.96168
305
root 11.6096 15.4678 17.2659 21.0386 -61.8257 -10.4519
lowerback -0.843031 0.807293 3.38478
upperback -6.47824 1.05965 -0.24926
thorax -6.18992 0.290624 -2.19621
lowerneck 10.5751 -8.23552 -29.1537
upperneck -6.94032 -15.0108 42.4157
head 2.70416 -9.3056 21.1944
rclavicle 3.36692e-014 4.77083e-015
rhumerus -39.4776 -25.1207 -52.5448
rradius 27.5624
rwrist 17.1226
rhand -15.456 -12.9148
rfingers 7.12502
rthumb 10.7249 -42.6211
lclavicle 3.36692e-014 4.77083e-015
lhumerus -37.7856 24.0335 69.1225
lradius 120.842
lwrist 48.0452
lhand -20.5298 -16.7336
lfingers 7.12502
lthumb 5.82831 13.1662
rfemur -20.1961 -3.73813 15.2893
rtibia 54.8628
rfoot -22.4587 -7.74353
rtoes -16.8644
lfemur -34.1482 12.1135 -24.5076
ltibia 44.1881
lfoot -22.0934 -16.1524
ltoes -3.72423
306
root 11.635 15.5223 17.2419 21.6584 -63.2928 -11.0335
lowerback -1.07182 0.8083 3.59215
upperback -6.5467 1.05217 -0.240369
thorax -6.13016 0.273305 -2.29939
lowerneck 10.1626 -8.05897 -29.1682
upperneck -6.43195 -14.7702 42.2363
head 2.78456 -9.12489 21.1112
rclavicle 8.69683e-015 -1.70955e-014
rhumerus -39.614 -23.9033 -51.8032
rradius 27.7954
rwrist 18.8185
rhand -15.5995 -12.5143
rfingers 7.12502
rthumb 10.5865 -42.2276
lclavicle 8.69683e-015 -1.70955e-014
lhumerus -37.5758 22.9826 70.0207
lradius 121.17
lwrist 48.3352
lhand -20.358 -16.7469
lfingers 7.12502
lthumb 5.99418 13.1483
rfemur -19.718 -4.19828 15.085
rtibia 54.0195
rfoot -22.1463 -7.72902
rtoes -16.0119
lfemur -33.7138 12.5587 -24.4821
ltibia 43.1646
lfoot -21.8911 -14.977
ltoes -5.52139
307
root 11.6588 15.5768 17.2167 22.3509 -64.7793 -11.678
lowerback -1.31918 0.797741 3.77943
upperback -6.60915 1.02717 -0.216426
thorax -6.05519 0.24909 -2.37467
lowerneck 9.74439 -7.87136 -29.1942
upperneck -5.92976 -14.5094 42.0555
head 2.85784 -8.93396 21.0352
rclavicle 3.7943e-014 -2.18663e-014
rhumerus -39.6465 -22.6013 -51.1748
rradius 28.0789
rwrist 20.2459
rhand -15.8486 -12.1772
rfingers 7.12502
rthumb 10.3462 -41.9027
lclavicle 3.7943e-014 -2.18663e-014
lhumerus -37.4095 21.8231 70.8869
lradius 121.33
lwrist 48.552
lhand -20.1555 -16.6394
lfingers 7.12502
lthumb 6.18967 13.2502
rfemur -19.315 -4.66588 14.8958
rtibia 53.1974
rfoot -21.7846 -7.67957
rtoes -15.2617
lfemur -33.268 13.0124 -24.4506
ltibia 42.1245
lfoot -21.6669 -13.8273
ltoes -7.27375
308
root 11.6812 15.6302 17.19 23.1088 -66.2853 -12.3781
lowerback -1.57709 0.768929 3.92867
upperback -6.66908 0.975883 -0.172649
thorax -5.97428 0.214463 -2.40707
lowerneck 9.31226 -7.6673 -29.237
upperneck -5.41591 -14.2228 41.8698
head 2.92765 -8.7286 20.9663
rclavicle 8.87325e-014 1.43125e-014
rhumerus -39.5636 -21.2252 -50.6549
rradius 28.3964
rwrist 21.3186
rhand -16.1869 -11.9171
rfingers 7.12502
rthumb 10.0199 -41.6586
lclavicle 8.87325e-014 1.43125e-014
lhumerus -37.302 20.598 71.701
lradius 121.323
lwrist 48.6718
lhand -19.9326 -16.4223
lfingers 7.12502
lthumb 6.40492 13.4609
rfemur -18.9936 -5.16255 14.7168
rtibia 52.413
rfoot -21.3663 -7.63199
rtoes -14.737
lfemur -32.815 13.4732 -24.4239
ltibia 41.0796
lfoot -21.4405 -12.6994
ltoes -9.01526
309
root 11.7026 15.682 17.1618 23.9475 -67.8076 -13.1505
lowerback -1.84606 0.73115 4.04521
upperback -6.7216 0.910677 -0.118634
thorax -5.8808 0.175287 -2.41021
lowerneck 8.87089 -7.45572 -29.286
upperneck -4.90384 -13.9214 41.6901
head 2.99493 -8.51624 20.9061
rclavicle 4.41053e-014 -4.77083e-015
rhumerus -39.3858 -19.8123 -50.2337
rradius 28.7459
rwrist 21.9751
rhand -16.5853 -11.7431
rfingers 7.12502
rthumb 9.6355 -41.5027
lclavicle 4.41053e-014 -4.77083e-015
lhumerus -37.226 19.3038 72.4557
lradius 121.143
lwrist 48.7173
lhand -19.6218 -16.1166
lfingers 7.12502
lthumb 6.70489 13.7572
rfemur -18.7583 -5.69902 14.555
rtibia 51.6782
rfoot -20.8827 -7.62687
rtoes -14.5147
lfemur -32.3613 13.9386 -24.4004
ltibia 40.0416
lfoot -21.2271 -11.5871
ltoes -10.7859
310
root 11.7233 15.7316 17.1312 24.9383 -69.3376 -14.0684
lowerback -2.12062 0.696459 4.15948
upperback -6.76664 0.848025 -0.0696947
thorax -5.77623 0.137676 -2.41783
lowerneck 8.42936 -7.24761 -29.3004
upperneck -4.40635 -13.6169 41.5186
head 3.05598 -8.30453 20.843
rclavicle 4.42296e-015 1.35174e-014
rhumerus -39.1558 -18.4231 -49.8955
rradius 29.1335
rwrist 22.1838
rhand -17.0408 -11.6535
rfingers 7.12502
rthumb 9.19601 -41.4329
lclavicle 4.42296e-015 1.35174e-014
lhumerus -37.1511 17.906 73.1386
lradius 120.785
lwrist 48.685
lhand -19.2633 -15.7562
lfingers 7.12502
lthumb 7.05098 14.1064
rfemur -18.6146 -6.25165 14.4416
rtibia 51.0036
rfoot -20.3411 -7.67548
rtoes -14.4822
lfemur -31.9202 14.4021 -24.354
ltibia 39.0218
lfoot -21.0266 -10.4917
ltoes -12.5779
311
root 11.7432 15.779 17.0984 26.108 -70.8776 -15.1597
lowerback -2.40197 0.680344 4.27922
upperback -6.80092 0.808256 -0.0395221
thorax -5.65474 0.111244 -2.44899
lowerneck 8.00297 -7.05177 -29.2701
upperneck -3.94416 -13.3219 41.3608
head 3.10771 -8.10174 20.7754
rclavicle 1.01132e-014 2.38542e-015
rhumerus -38.9036 -17.044 -49.6441
rradius 29.5753
rwrist 21.8763
rhand -17.5254 -11.671
rfingers 7.12502
rthumb 8.72832 -41.4706
lclavicle 1.01132e-014 2.38542e-015
lhumerus -37.0622 16.3955 73.7473
lradius 120.257
lwrist 48.6307
lhand -18.8154 -15.3581
lfingers 7.12502
lthumb 7.4833 14.4895
rfemur -18.5559 -6.81116 14.3729
rtibia 50.3945
rfoot -19.7503 -7.79705
rtoes -14.6691
lfemur -31.4899 14.8597 -24.2879
ltibia 38.029
lfoot -20.8461 -9.40938
ltoes -14.3582
312
root 11.7625 15.824 17.0633 27.4787 -72.438 -16.4396
lowerback -2.68974 0.695099 4.39231
upperback -6.82824 0.807529 -0.0340729
thorax -5.51927 0.104442 -2.5032
lowerneck 7.6086 -6.87263 -29.2043
upperneck -3.53075 -13.0464 41.2215
head 3.14925 -7.91485 20.7076
rclavicle 7.33764e-014 3.33958e-014
rhumerus -38.6613 -15.7044 -49.4395
rradius 30.0797
rwrist 21.0983
rhand -18.0146 -11.7779
rfingers 7.12502
rthumb 8.25624 -41.5965
lclavicle 7.33764e-014 3.33958e-014
lhumerus -36.953 14.7536 74.3012
lradius 119.574
lwrist 48.5421
lhand -18.3325 -14.9397
lfingers 7.12502
lthumb 7.94944 14.8908
rfemur -18.5832 -7.33186 14.3295
rtibia 49.8553
rfoot -19.138 -7.95606
rtoes -14.7731
lfemur -31.0786 15.3109 -24.2188
ltibia 37.0695
lfoot -20.6866 -8.33535
ltoes -16.0904
313
root 11.7813 15.8662 17.0261 29.0818 -74.0148 -17.9379
lowerback -2.97331 0.732947 4.47728
upperback -6.85711 0.836629 -0.0361515
thorax -5.38577 0.113724 -2.55006
lowerneck 7.24347 -6.7042 -29.1369
upperneck -3.15275 -12.7864 41.0912
head 3.18446 -7.73985 20.643
rclavicle 2.5842e-015 -5.1684e-015
rhumerus -38.4305 -14.3963 -49.2466
rradius 30.6643
rwrist 19.9106
rhand -18.4597 -11.9745
rfingers 7.12502
rthumb 7.82662 -41.8096
lclavicle 2.5842e-015 -5.1684e-015
lhumerus -36.8461 13.0153 74.8117
lradius 118.76
lwrist 48.4226
lhand -17.8524 -14.5072
lfingers 7.12502
lthumb 8.41274 15.3053
rfemur -18.691 -7.81426 14.3016
rtibia 49.3857
rfoot -18.5221 -8.15809
rtoes -14.7861
lfemur -30.6908 15.7468 -24.1572
ltibia 36.1503
lfoot -20.5421 -7.26535
ltoes -17.7016
314
root 11.8001 15.9052 16.9876 30.9798 -75.6063 -19.7195
lowerback -3.24879 0.784768 4.52959
upperback -6.88876 0.884117 -0.0371634
thorax -5.25864 0.133682 -2.57764
lowerneck 6.90072 -6.53994 -29.0836
upperneck -2.79609 -12.5344 40.9655
head 3.21585 -7.5717 20.5846
rclavicle 2.23881e-014 -6.36111e-015
rhumerus -38.2012 -13.1487 -49.0422
rradius 31.3362
rwrist 18.435
rhand -18.8026 -12.2519
rfingers 7.12502
rthumb 7.49573 -42.0991
lclavicle 2.23881e-014 -6.36111e-015
lhumerus -36.7616 11.2277 75.2842
lradius 117.848
lwrist 48.275
lhand -17.4103 -14.0632
lfingers 7.12502
lthumb 8.83944 15.7317
rfemur -18.8699 -8.25318 14.2798
rtibia 48.983
rfoot -17.9158 -8.39276
rtoes -14.6926
lfemur -30.3275 16.1621 -24.1091
ltibia 35.2793
lfoot -20.4157 -6.19454
ltoes -19.1667
315
root 11.8194 15.9406 16.9474 33.2996 -77.2091 -21.908
lowerback -3.51139 0.840787 4.54756
upperback -6.92881 0.937489 -0.0331837
thorax -5.14765 0.15778 -2.58069
lowerneck 6.56972 -6.3737 -29.0407
upperneck -2.44513 -12.2809 40.8371
head 3.2441 -7.40387 20.5279
rclavicle -3.84897e-014 -1.55052e-014
rhumerus -37.9713 -11.9907 -48.8103
rradius 32.1128
rwrist 16.816
rhand -18.9256 -12.5743
rfingers 7.12502
rthumb 7.37693 -42.4256
lclavicle -3.84897e-014 -1.55052e-014
lhumerus -36.7146 9.41719 75.7015
lradius 116.871
lwrist 48.1138
lhand -17.0576 -13.6067
lfingers 7.12502
lthumb 9.17981 16.1735
rfemur -19.1228 -8.65387 14.2674
rtibia 48.6412
rfoot -17.3299 -8.65151
rtoes -14.5519
lfemur -30.0036 16.5607 -24.0764
ltibia 34.4697
lfoot -20.3051 -5.14368
ltoes -20.412
